HIERARCHY
ROOT Hips
{
	OFFSET 0.000000 0.000000 0.000000
	CHANNELS 6 Xposition Yposition Zposition Zrotation Yrotation Xrotation 
	JOINT LeftUpLeg_virtual
	{
		OFFSET 0.000000 0.000000 0.000000
		CHANNELS 3 Zrotation Yrotation Xrotation
		JOINT LeftUpLeg
		{
			OFFSET 8.479694 -4.795517 -0.379053
			CHANNELS 3 Zrotation Yrotation Xrotation
			JOINT LeftLeg
			{
				OFFSET 0.485052 -32.551468 0.112863
				CHANNELS 3 Zrotation Yrotation Xrotation
				JOINT LeftFoot
				{
					OFFSET 0.438033 -32.635670 -3.012641
					CHANNELS 3 Zrotation Yrotation Xrotation
					JOINT LeftToeBase
					{
						OFFSET 0.970169 -13.225353 11.864223
						CHANNELS 3 Zrotation Yrotation Xrotation
						End Site
						{
							OFFSET 0.000000 0.000000 0.000000
						}
					}
				}
			}
		}
	}
	JOINT RightUpLeg_virtual
	{
		OFFSET 0.000000 0.000000 0.000000
		CHANNELS 3 Zrotation Yrotation Xrotation
		JOINT RightUpLeg
		{
			OFFSET -8.479694 -4.795517 -0.379053
			CHANNELS 3 Zrotation Yrotation Xrotation
			JOINT RightLeg
			{
				OFFSET -0.484100 -32.551483 0.112903
				CHANNELS 3 Zrotation Yrotation Xrotation
				JOINT RightFoot
				{
					OFFSET -0.438985 -32.635651 -3.012681
					CHANNELS 3 Zrotation Yrotation Xrotation
					JOINT RightToeBase
					{
						OFFSET -0.970169 -13.225354 11.864223
						CHANNELS 3 Zrotation Yrotation Xrotation
						End Site
						{
							OFFSET 0.000000 0.000000 0.000000
						}
					}
				}
			}
		}
	}
	JOINT Spine_virtual
	{
		OFFSET 0.000000 0.000000 0.000000
		CHANNELS 3 Zrotation Yrotation Xrotation
		JOINT Spine
		{
			OFFSET 0.000000 7.722015 1.166203
			CHANNELS 3 Zrotation Yrotation Xrotation
			JOINT Spine1
			{
				OFFSET 0.000000 12.024086 0.248766
				CHANNELS 3 Zrotation Yrotation Xrotation
				JOINT Spine2
				{
					OFFSET -0.000000 11.503036 -0.491240
					CHANNELS 3 Zrotation Yrotation Xrotation
					JOINT Neck_virtual
					{
						OFFSET 0.000000 0.000000 0.000000
						CHANNELS 3 Zrotation Yrotation Xrotation
						JOINT Neck
						{
							OFFSET 0.000000 18.430687 -3.123054
							CHANNELS 3 Zrotation Yrotation Xrotation
							JOINT Head
							{
								OFFSET -0.000000 9.051071 1.034021
								CHANNELS 3 Zrotation Yrotation Xrotation
								End Site
								{
									OFFSET 0.000000 0.000000 0.000000
								}
							}
						}
					}
					JOINT LeftShoulder_virtual
					{
						OFFSET 0.000000 0.000000 0.000000
						CHANNELS 3 Zrotation Yrotation Xrotation
						JOINT LeftShoulder
						{
							OFFSET 6.197824 13.665230 -4.064723
							CHANNELS 3 Zrotation Yrotation Xrotation
							JOINT LeftArm
							{
								OFFSET 7.778132 -0.187073 -1.709282
								CHANNELS 3 Zrotation Yrotation Xrotation
								JOINT LeftForeArm
								{
									OFFSET 21.954697 0.000000 -2.041093
									CHANNELS 3 Zrotation Yrotation Xrotation
									JOINT LeftHand
									{
										OFFSET 22.992908 0.000000 -0.870901
										CHANNELS 3 Zrotation Yrotation Xrotation
										End Site
										{
											OFFSET 0.000000 0.000000 0.000000
										}
									}
								}
							}
						}
					}
					JOINT RightShoulder_virtual
					{
						OFFSET 0.000000 0.000000 0.000000
						CHANNELS 3 Zrotation Yrotation Xrotation
						JOINT RightShoulder
						{
							OFFSET -6.197824 13.665230 -4.064723
							CHANNELS 3 Zrotation Yrotation Xrotation
							JOINT RightArm
							{
								OFFSET -7.778132 -0.187073 -1.709282
								CHANNELS 3 Zrotation Yrotation Xrotation
								JOINT RightForeArm
								{
									OFFSET -21.954697 0.000000 -2.041093
									CHANNELS 3 Zrotation Yrotation Xrotation
									JOINT RightHand
									{
										OFFSET -22.992908 0.000000 -0.870901
										CHANNELS 3 Zrotation Yrotation Xrotation
										End Site
										{
											OFFSET 0.000000 0.000000 0.000000
										}
									}
								}
							}
						}
					}
				}
			}
		}
	}
}
MOTION
Frames: 14
Frame Time: 0.033333
-16.300014 79.127571 44.418095 -0.556120 78.941264 -1.147481 -2.271582 0.056521 11.414855 1.690600 4.341347 -40.210683 6.227835 5.334386 40.868666 -2.941785 -3.745306 -9.073649 0.000000 0.000000 0.000000 4.575265 -1.243812 10.433658 -3.112133 7.867846 -35.705630 1.648633 5.355432 35.932396 10.373551 7.365531 -2.379848 0.000000 0.000000 0.000000 4.054023 1.649754 3.149699 -0.598227 0.279858 -1.144542 -2.976612 -1.646757 6.137843 -0.071614 -0.073612 -0.051435 -3.866468 0.041800 7.436604 -9.947885 4.065711 -10.306565 0.000000 0.000000 0.000000 -1.961623 0.539328 4.847853 1.796889 -3.694625 1.059156 -66.334319 -14.436938 9.988150 160.576122 -86.077090 -128.472894 0.000000 0.000000 0.000000 -6.214852 1.978395 4.022709 24.501101 -1.102877 3.355362 46.769352 -6.202485 -7.999508 -3.261678 23.252121 -2.602471 0.000000 0.000000 0.000000 
-15.781493 79.177261 44.072609 -1.157832 76.509361 -1.714860 -2.071034 0.731309 11.491285 0.632858 3.723563 -40.087985 6.382186 6.492720 36.519973 -4.100469 -3.766098 -9.159977 0.000000 0.000000 0.000000 4.814529 -0.399813 10.994066 -3.404346 8.079897 -36.185577 1.633900 5.633582 36.157799 11.031261 7.983671 -1.859916 0.000000 0.000000 0.000000 4.399051 2.051939 3.265564 -0.707610 0.058687 -0.888513 -2.909517 -1.803992 6.417311 -0.075380 -0.111485 -0.100694 -3.761954 0.012953 7.787333 -10.113779 4.264637 -10.781075 0.000000 0.000000 0.000000 -1.766588 0.417290 5.172268 1.748732 -3.999241 1.198499 -65.927534 -14.562756 10.545813 165.803976 -85.549130 -133.444739 0.000000 0.000000 0.000000 -5.999561 1.904560 4.188215 24.904869 -0.836617 3.326369 45.944234 -3.899886 -7.759042 -3.382213 24.227755 -2.681408 0.000000 0.000000 0.000000 
-15.176761 79.149078 43.608589 -1.280298 73.778693 -1.528072 -1.867011 1.471193 11.698731 -0.546140 3.551838 -39.708387 6.743571 7.599113 33.839984 -4.912420 -3.152860 -8.665511 0.000000 0.000000 0.000000 4.937736 0.491382 11.227754 -3.718060 8.196219 -36.871472 1.652828 5.977358 37.016453 11.556395 8.815492 -1.841899 0.000000 0.000000 0.000000 4.540130 2.793449 3.267623 -0.891314 -0.102422 -0.856719 -2.664259 -2.029187 6.420448 -0.071543 -0.200260 0.036163 -3.580249 -0.202221 7.969720 -9.895931 4.487669 -11.142240 0.000000 0.000000 0.000000 -1.492614 0.235999 5.284828 1.388779 -4.025827 1.266788 -65.228252 -14.823443 10.659746 171.444961 -85.085142 -139.106843 0.000000 0.000000 0.000000 -5.705597 1.770760 4.385114 25.226325 -0.600281 3.231129 45.433114 -1.666083 -7.689489 -3.551145 24.925037 -3.008778 0.000000 0.000000 0.000000 
-14.539303 79.069809 43.071976 -0.644186 70.948850 -0.686138 -1.596023 1.927022 12.067168 -1.473725 3.222791 -39.411923 6.978467 7.520165 32.980538 -6.322625 -3.330663 -8.787979 0.000000 0.000000 0.000000 4.832116 1.125429 11.640234 -4.042184 8.203001 -37.885587 1.723880 6.242416 38.740328 11.947472 9.985295 -2.980445 0.000000 0.000000 0.000000 4.442883 3.485121 3.198514 -1.164320 -0.183057 -1.005821 -2.406371 -2.092514 6.531603 -0.050566 -0.131711 -0.007723 -3.236596 -0.348873 8.201120 -8.997325 4.486616 -11.110866 0.000000 0.000000 0.000000 -1.173862 -0.027223 5.393650 0.798206 -4.207820 1.301845 -64.421593 -15.498345 10.570723 172.638673 -84.801668 -140.564528 0.000000 0.000000 0.000000 -5.322379 1.642146 4.440972 25.347566 -0.502233 3.138350 45.343655 0.042339 -7.687371 -3.717830 25.441597 -3.411047 0.000000 0.000000 0.000000 
-13.970035 78.979385 42.569698 0.163088 68.026717 0.124568 -1.445699 2.378576 12.470970 -2.414471 3.266246 -39.327748 7.701269 7.933083 33.108516 -6.394087 -2.228860 -9.700805 0.000000 0.000000 0.000000 4.633004 1.486593 12.052041 -4.085408 7.629028 -39.120031 1.621012 6.143527 41.382149 11.924182 11.018160 -4.517816 0.000000 0.000000 0.000000 4.218170 3.982153 3.207768 -1.391366 -0.249239 -1.120487 -2.144741 -2.106973 6.583157 -0.021127 -0.022317 -0.078433 -2.816759 -0.476687 8.257554 -7.666115 4.419657 -10.922873 0.000000 0.000000 0.000000 -0.787532 -0.006190 5.424958 -0.217157 -4.501858 1.300873 -63.346842 -16.790927 10.127787 174.808351 -84.672291 -143.216622 0.000000 0.000000 0.000000 -4.917556 1.570559 4.529003 25.138612 -0.341420 3.095963 45.740619 1.088471 -7.439159 -3.865836 25.755566 -3.864570 0.000000 0.000000 0.000000 
-13.435060 78.923317 42.200363 0.450563 65.714117 0.429824 -1.150032 2.814917 12.978389 -3.217708 2.462317 -39.349516 8.399508 7.960360 33.225722 -6.013771 -0.726747 -10.641339 0.000000 0.000000 0.000000 4.402898 1.555948 12.393846 -3.637455 6.285235 -40.396420 1.376847 5.607976 44.017844 11.840107 11.840852 -5.401439 0.000000 0.000000 0.000000 4.172794 4.193393 3.209224 -1.386513 -0.293415 -1.318386 -1.897906 -2.165025 6.519941 0.002670 0.012157 -0.021322 -2.416689 -0.537822 8.179373 -5.679374 4.110591 -10.547276 0.000000 0.000000 0.000000 -0.534903 -0.048780 5.288656 -1.460564 -4.777483 1.205727 -62.254702 -18.437346 9.638435 174.055241 -84.863932 -143.165628 0.000000 0.000000 0.000000 -4.680415 1.560009 4.439852 24.782527 -0.188594 3.175364 46.468372 1.367316 -6.857175 -4.104248 25.871111 -4.485745 0.000000 0.000000 0.000000 
-12.944024 78.933434 42.053341 0.511940 64.146767 0.616373 -1.375223 2.296786 13.314037 -3.514811 2.587346 -39.441498 9.503267 8.096180 33.492488 -6.006724 -0.237646 -11.365419 0.000000 0.000000 0.000000 4.045474 1.499305 12.766474 -3.237892 4.831729 -41.480142 0.949092 5.143284 46.791546 11.382820 12.037320 -5.300377 0.000000 0.000000 0.000000 4.259835 4.095009 3.128541 -1.170494 -0.294855 -1.563149 -1.636702 -2.222676 6.457671 0.045138 0.038433 0.024006 -2.084042 -0.754944 8.088621 -3.235226 3.684437 -10.056510 0.000000 0.000000 0.000000 -0.466924 -0.129882 5.156768 -2.855156 -5.102595 1.079867 -61.136586 -20.261937 9.156320 171.964970 -85.166933 -141.933366 0.000000 0.000000 0.000000 -4.534024 1.448595 4.418475 24.206469 0.007426 3.172101 47.446589 1.120719 -6.144769 -4.295316 25.620916 -5.126736 0.000000 0.000000 0.000000 
-12.501379 78.990784 42.136364 0.388038 63.020270 0.378367 -1.354545 1.885259 13.764435 -3.828239 2.638824 -39.155637 10.214861 8.074754 33.399997 -5.743884 0.344008 -11.793280 0.000000 0.000000 0.000000 3.756703 1.590197 13.050909 -2.961607 3.608922 -42.419330 0.765047 4.713202 49.034553 10.901361 12.180158 -4.790983 0.000000 0.000000 0.000000 4.495289 3.957640 3.209915 -0.780563 -0.209292 -1.681584 -1.447392 -2.271952 6.496253 0.008676 0.047975 -0.014389 -1.787585 -0.702222 8.051990 -0.299358 3.034150 -9.390101 0.000000 0.000000 0.000000 -0.409905 -0.222985 5.096083 -4.130042 -5.497014 0.908968 -60.091902 -22.037115 8.581291 171.037649 -85.576451 -141.959116 0.000000 0.000000 0.000000 -4.425970 1.316965 4.349420 23.696091 0.261527 3.314343 48.328574 0.354310 -5.364649 -4.515799 24.995436 -5.641061 0.000000 0.000000 0.000000 
-12.087589 79.055450 42.439724 0.260526 62.165998 0.180101 -1.279159 1.647809 14.139706 -3.881479 2.696422 -38.966663 10.710068 8.045649 33.328533 -5.598005 0.495641 -12.160576 0.000000 0.000000 0.000000 3.452533 1.698233 13.010331 -3.125902 2.781231 -43.261568 0.478991 4.326845 50.830148 10.255592 11.835707 -3.492601 0.000000 0.000000 0.000000 4.660255 3.840095 3.240246 -0.383196 -0.096159 -1.754932 -1.225707 -2.335264 6.535220 0.029171 0.048721 -0.019520 -1.547616 -0.849058 8.079484 2.835003 2.308299 -8.609500 0.000000 0.000000 0.000000 -0.398918 -0.343268 5.050238 -5.271531 -5.827719 0.746623 -59.429674 -23.381186 8.191460 167.777873 -86.061149 -139.671249 0.000000 0.000000 0.000000 -4.403871 1.297631 4.316541 23.250869 0.618204 3.434502 48.953141 -0.696558 -4.801022 -4.642321 23.912926 -6.088775 0.000000 0.000000 0.000000 
-11.716036 79.114357 42.865017 0.401642 61.736960 0.355405 -1.331938 1.491209 14.370385 -3.754514 2.841581 -38.773632 10.910512 8.019324 33.417018 -5.420271 0.422998 -12.484855 0.000000 0.000000 0.000000 3.224514 1.590669 13.111747 -3.817518 2.194631 -44.038977 -0.024192 4.127673 51.478473 9.035637 11.041070 -3.782015 0.000000 0.000000 0.000000 4.657095 3.734991 3.138232 -0.093837 0.015545 -1.829866 -1.013812 -2.375400 6.607165 -0.014329 0.098207 0.022140 -1.138079 -0.793808 8.114002 6.030575 1.565513 -7.817267 0.000000 0.000000 0.000000 -0.192514 -0.402812 5.026340 -6.187599 -6.107480 0.596688 -59.297066 -24.182894 7.955373 165.894981 -86.534849 -138.689013 0.000000 0.000000 0.000000 -4.185636 1.198346 4.309277 22.720826 0.948234 3.506948 49.218589 -1.934211 -4.872195 -4.564628 22.354615 -6.345211 0.000000 0.000000 0.000000 
-11.429223 79.172173 43.397194 0.275611 61.734084 0.319086 -1.383807 1.370714 14.370441 -3.340050 2.901405 -38.599240 10.943775 7.902854 33.697677 -5.265775 0.083120 -12.650578 0.000000 0.000000 0.000000 3.024723 1.558871 13.104544 -5.007803 1.982011 -44.206525 -0.284548 4.049820 50.637715 8.355264 10.612027 -4.457413 0.000000 0.000000 0.000000 4.573411 3.738366 2.894252 0.151332 0.083565 -1.905462 -0.705508 -2.450715 6.671006 0.043156 0.096965 -0.019899 -0.860104 -0.999922 8.345096 8.995155 0.765469 -6.923262 0.000000 0.000000 0.000000 -0.058494 -0.496098 5.047515 -6.899040 -6.349956 0.412854 -59.377505 -24.268401 7.605591 165.110520 -86.742795 -138.698138 0.000000 0.000000 0.000000 -4.095934 1.090059 4.490627 22.230784 1.063034 3.514014 49.149304 -3.343175 -5.516488 -4.449160 20.688068 -6.417000 0.000000 0.000000 0.000000 
-11.201093 79.223877 44.016800 -0.019451 62.285103 0.134598 -1.434850 1.288568 14.213650 -2.697578 2.974498 -38.286864 10.785307 7.466122 34.016712 -5.021241 -0.336618 -12.780853 0.000000 0.000000 0.000000 2.915699 1.434544 13.123549 -6.518447 2.097974 -43.905709 -0.289941 4.096362 48.641059 8.596024 10.858759 -4.594781 0.000000 0.000000 0.000000 4.518488 3.705331 2.453131 0.290489 0.078699 -1.906353 -0.409462 -2.540812 6.790201 0.025841 0.083581 0.003396 -0.464905 -1.133108 8.439201 11.589165 0.299367 -6.108782 0.000000 0.000000 0.000000 0.226155 -0.587731 5.100382 -7.342295 -6.552431 0.194533 -59.428964 -23.602943 6.555089 166.556635 -86.979228 -140.693195 0.000000 0.000000 0.000000 -3.860434 0.996382 4.545154 21.807324 0.935506 3.432440 48.983702 -4.704908 -6.673032 -4.403665 19.196679 -6.325118 0.000000 0.000000 0.000000 
-11.050539 79.273750 44.742321 0.033230 63.131910 0.123065 -1.603454 1.259012 13.954515 -2.021694 3.043747 -37.834358 10.297659 6.812198 34.211099 -4.745595 -0.852198 -12.861204 0.000000 0.000000 0.000000 2.845065 1.504661 13.138808 -8.176489 2.387980 -43.140581 -0.278358 4.411499 46.445140 8.949683 10.923169 -4.540162 0.000000 0.000000 0.000000 4.330077 3.697093 2.115299 0.257020 0.094421 -2.056029 -0.145118 -2.597439 6.879431 -0.012280 0.059183 0.033625 -0.038803 -1.378626 8.641346 13.527884 -0.319628 -5.235944 0.000000 0.000000 0.000000 0.552195 -0.668750 5.187420 -7.664795 -6.538496 0.069058 -59.135962 -22.221901 4.495918 167.570741 -87.001146 -141.973774 0.000000 0.000000 0.000000 -3.548207 0.903982 4.690483 21.498145 0.666000 3.269242 48.809789 -5.885898 -7.979043 -4.318438 18.224693 -6.151123 0.000000 0.000000 0.000000 
-10.966318 79.313072 45.610306 0.068008 64.493399 0.152842 -1.606379 1.186079 13.590378 -1.198030 3.019830 -37.320762 9.608771 6.069348 34.314809 -4.601971 -1.603211 -12.916621 0.000000 0.000000 0.000000 2.815310 1.306111 12.982579 -9.831490 3.249470 -42.080570 -0.353054 4.475029 44.452637 9.366913 10.823740 -4.253708 0.000000 0.000000 0.000000 4.183112 3.616245 1.668403 0.126365 0.103748 -2.208459 0.080766 -2.628673 6.920634 0.034283 0.052274 0.021122 0.240482 -1.264198 8.885426 14.903324 -0.831426 -4.552553 0.000000 0.000000 0.000000 0.763319 -0.789492 5.362715 -7.923689 -6.379232 -0.213727 -58.709082 -20.048034 1.538702 169.774638 -87.031329 -144.079863 0.000000 0.000000 0.000000 -3.366883 0.804182 4.843323 21.312763 0.282403 3.058343 48.765481 -6.674390 -9.087702 -4.348358 17.769873 -5.927567 0.000000 0.000000 0.000000 
